<svg xmlns="http://www.w3.org/2000/svg" xmlns:xlink="http://www.w3.org/1999/xlink" width="1080" zoomAndPan="magnify" viewBox="0 0 810 1439.999935" height="1920" preserveAspectRatio="xMidYMid meet" version="1.2">
  <defs>
    <clipPath id="d74969de39">
      <path d="M 115.605469 1151.09375 L 672.855469 1151.09375 L 672.855469 1175 L 115.605469 1175 Z M 115.605469 1151.09375 " />
    </clipPath>
    <clipPath id="4aa1e72f29">
      <path d="M 347 1207 L 443 1207 L 443 1302.59375 L 347 1302.59375 Z M 347 1207 " />
    </clipPath>
    <clipPath id="b610477b90">
      <path d="M 321.34375 1183.289062 L 466.84375 1183.289062 L 466.84375 1328.789062 L 321.34375 1328.789062 Z M 321.34375 1183.289062 " />
    </clipPath>
  </defs>
  <g id="f696eb6086">
    <g clip-rule="nonzero" clip-path="url(#d74969de39)">
      <path style=" stroke:none;fill-rule:nonzero;fill:#58251b;fill-opacity:1;" d="M 670.273438 1161.039062 L 289.75 1161.039062 C 288.820312 1155.53125 284.03125 1151.328125 278.261719 1151.328125 C 273.121094 1151.328125 268.777344 1154.652344 267.21875 1159.257812 L 119.285156 1159.257812 C 117.359375 1159.257812 115.789062 1160.722656 115.59375 1162.59375 C 115.566406 1162.726562 115.554688 1162.855469 115.554688 1162.988281 C 115.554688 1163.117188 115.566406 1163.25 115.59375 1163.378906 C 115.789062 1165.25 117.359375 1166.714844 119.285156 1166.714844 L 267.21875 1166.714844 C 268.777344 1171.320312 273.132812 1174.644531 278.261719 1174.644531 C 284.03125 1174.644531 288.820312 1170.445312 289.75 1164.9375 L 670.273438 1164.9375 C 671.359375 1164.9375 672.234375 1164.058594 672.234375 1162.972656 C 672.234375 1161.925781 671.359375 1161.039062 670.273438 1161.039062 Z M 670.273438 1161.039062 " />
    </g>
    <path style=" stroke:none;fill-rule:nonzero;fill:#58251b;fill-opacity:1;" d="M 245.160156 1258.289062 L 275.476562 1277.585938 C 277.320312 1278.765625 279.726562 1277.441406 279.726562 1275.257812 L 279.726562 1235.457031 C 279.726562 1233.273438 277.320312 1231.949219 275.476562 1233.128906 L 245.160156 1252.425781 C 243.015625 1253.789062 243.015625 1256.925781 245.160156 1258.289062 Z M 245.160156 1258.289062 " />
    <path style=" stroke:none;fill-rule:nonzero;fill:#58251b;fill-opacity:1;" d="M 238.867188 1275.570312 L 234.601562 1275.570312 C 233.933594 1275.570312 233.386719 1275.023438 233.386719 1274.355469 L 233.386719 1236.359375 C 233.386719 1235.691406 233.933594 1235.144531 234.601562 1235.144531 L 238.867188 1235.144531 C 239.535156 1235.144531 240.085938 1235.691406 240.085938 1236.359375 L 240.085938 1274.355469 C 240.085938 1275.023438 239.535156 1275.570312 238.867188 1275.570312 Z M 238.867188 1275.570312 " />
    <path style=" stroke:none;fill-rule:nonzero;fill:#58251b;fill-opacity:1;" d="M 544.5 1252.425781 L 514.1875 1233.128906 C 512.339844 1231.949219 509.933594 1233.273438 509.933594 1235.457031 L 509.933594 1275.257812 C 509.933594 1277.441406 512.339844 1278.765625 514.1875 1277.585938 L 544.5 1258.289062 C 546.644531 1256.925781 546.644531 1253.789062 544.5 1252.425781 Z M 544.5 1252.425781 " />
    <path style=" stroke:none;fill-rule:nonzero;fill:#58251b;fill-opacity:1;" d="M 550.792969 1235.144531 L 555.058594 1235.144531 C 555.726562 1235.144531 556.277344 1235.691406 556.277344 1236.359375 L 556.277344 1274.355469 C 556.277344 1275.023438 555.726562 1275.570312 555.058594 1275.570312 L 550.792969 1275.570312 C 550.125 1275.570312 549.578125 1275.023438 549.578125 1274.355469 L 549.578125 1236.359375 C 549.578125 1235.691406 550.125 1235.144531 550.792969 1235.144531 Z M 550.792969 1235.144531 " />
    <g clip-rule="nonzero" clip-path="url(#4aa1e72f29)">
      <path style=" stroke:none;fill-rule:nonzero;fill:#58251b;fill-opacity:1;" d="M 394.835938 1207.96875 C 368.65625 1207.96875 347.449219 1229.191406 347.449219 1255.359375 C 347.449219 1281.539062 368.671875 1302.746094 394.835938 1302.746094 C 421.015625 1302.746094 442.226562 1281.523438 442.226562 1255.359375 C 442.226562 1229.191406 421.003906 1207.96875 394.835938 1207.96875 Z M 389.132812 1269.148438 C 389.132812 1271.726562 387.027344 1273.832031 384.449219 1273.832031 C 381.871094 1273.832031 379.765625 1271.726562 379.765625 1269.148438 L 379.765625 1241.566406 C 379.765625 1238.988281 381.871094 1236.882812 384.449219 1236.882812 C 387.027344 1236.882812 389.132812 1238.988281 389.132812 1241.566406 Z M 409.910156 1269.148438 C 409.910156 1271.726562 407.804688 1273.832031 405.226562 1273.832031 C 402.648438 1273.832031 400.542969 1271.726562 400.542969 1269.148438 L 400.542969 1241.566406 C 400.542969 1238.988281 402.636719 1236.882812 405.226562 1236.882812 C 407.804688 1236.882812 409.910156 1238.988281 409.910156 1241.566406 Z M 409.910156 1269.148438 " />
    </g>
    <path style=" stroke:none;fill-rule:nonzero;fill:#58251b;fill-opacity:1;" d="M 630.878906 1246.890625 L 640.835938 1246.890625 L 640.835938 1250.253906 C 640.835938 1250.910156 641.554688 1251.300781 642.117188 1250.960938 L 651.210938 1245.164062 C 651.851562 1244.757812 651.851562 1243.816406 651.210938 1243.398438 L 642.117188 1237.601562 C 641.566406 1237.25 640.835938 1237.640625 640.835938 1238.308594 L 640.835938 1241.671875 L 630.96875 1241.671875 C 623.144531 1241.671875 616.289062 1247.46875 615.558594 1255.265625 C 614.757812 1263.785156 621.105469 1271.042969 629.296875 1271.699219 C 629.949219 1271.75 630.523438 1271.253906 630.523438 1270.585938 L 630.523438 1267.566406 C 630.523438 1267.015625 630.121094 1266.519531 629.570312 1266.464844 C 624.191406 1265.941406 620.085938 1261.0625 620.804688 1255.410156 C 621.445312 1250.464844 625.894531 1246.890625 630.878906 1246.890625 Z M 630.878906 1246.890625 " />
    <path style=" stroke:none;fill-rule:nonzero;fill:#58251b;fill-opacity:1;" d="M 656.707031 1242.824219 L 656.707031 1245.84375 C 656.707031 1246.394531 657.109375 1246.890625 657.660156 1246.945312 C 663.039062 1247.46875 667.144531 1252.347656 666.425781 1258 C 665.796875 1262.945312 661.351562 1266.519531 656.367188 1266.519531 L 646.410156 1266.519531 L 646.410156 1263.15625 C 646.410156 1262.5 645.6875 1262.109375 645.125 1262.449219 L 636.035156 1268.246094 C 635.390625 1268.648438 635.390625 1269.59375 636.035156 1270.011719 L 645.125 1275.808594 C 645.675781 1276.160156 646.410156 1275.769531 646.410156 1275.101562 L 646.410156 1271.738281 L 656.273438 1271.738281 C 664.097656 1271.738281 670.953125 1265.941406 671.6875 1258.144531 C 672.484375 1249.625 666.140625 1242.367188 657.949219 1241.699219 C 657.28125 1241.660156 656.707031 1242.15625 656.707031 1242.824219 Z M 656.707031 1242.824219 " />
    <path style=" stroke:none;fill-rule:nonzero;fill:#58251b;fill-opacity:1;" d="M 156.585938 1262.09375 C 156.035156 1261.742188 155.304688 1262.132812 155.304688 1262.800781 L 155.304688 1266.164062 L 149.230469 1266.164062 C 146.785156 1266.164062 144.523438 1264.828125 143.332031 1262.683594 L 140.035156 1256.71875 L 143.332031 1250.753906 C 144.523438 1248.605469 146.773438 1247.273438 149.230469 1247.273438 L 155.304688 1247.273438 L 155.304688 1250.632812 C 155.304688 1251.289062 156.023438 1251.679688 156.585938 1251.339844 L 165.679688 1245.542969 C 166.320312 1245.140625 166.320312 1244.195312 165.679688 1243.777344 L 156.585938 1237.984375 C 156.035156 1237.628906 155.304688 1238.023438 155.304688 1238.6875 L 155.304688 1242.050781 L 149.230469 1242.050781 C 144.875 1242.050781 140.859375 1244.417969 138.753906 1248.226562 L 137.039062 1251.328125 L 134.933594 1247.507812 C 132.824219 1243.699219 128.808594 1241.332031 124.453125 1241.332031 L 117.152344 1241.332031 C 116.535156 1241.332031 116.039062 1241.828125 116.039062 1242.445312 L 116.039062 1245.453125 C 116.039062 1246.066406 116.535156 1246.566406 117.152344 1246.566406 L 124.453125 1246.566406 C 126.898438 1246.566406 129.160156 1247.898438 130.351562 1250.046875 L 134.054688 1256.730469 L 130.351562 1263.417969 C 129.160156 1265.5625 126.910156 1266.898438 124.453125 1266.898438 L 117.152344 1266.898438 C 116.535156 1266.898438 116.039062 1267.394531 116.039062 1268.007812 L 116.039062 1271.019531 C 116.039062 1271.632812 116.535156 1272.128906 117.152344 1272.128906 L 124.453125 1272.128906 C 128.808594 1272.128906 132.824219 1269.761719 134.933594 1265.957031 L 137.039062 1262.132812 L 138.753906 1265.234375 C 140.859375 1269.042969 144.875 1271.410156 149.230469 1271.410156 L 155.304688 1271.410156 L 155.304688 1274.773438 C 155.304688 1275.425781 156.023438 1275.820312 156.585938 1275.480469 L 165.679688 1269.683594 C 166.320312 1269.277344 166.320312 1268.335938 165.679688 1267.917969 Z M 156.585938 1262.09375 " />
    <g clip-rule="nonzero" clip-path="url(#b610477b90)">
      <g mask="url(#cd0c1f97d3)" transform="matrix(0.159016,0,0,0.159016,321.344345,1183.289997)">
        <image width="915" xlink:href="11.png" />
        <mask id="cd0c1f97d3">
          <g>
            <image width="915" xlink:href="22.png" height="915" preserveAspectRatio="xMidYMid meet" />
          </g>
        </mask>
      </g>
    </g>
  </g>
</svg>